<svg xmlns="http://www.w3.org/2000/svg" version="1.1" xmlns:xlink="http://www.w3.org/1999/xlink" viewBox="0 0 200 200"><rect width="200" height="200" fill="url('#gradient')"></rect><defs><linearGradient id="gradient" gradientTransform="rotate(45 0.5 0.5)"><stop offset="0%" stop-color="#ffdaed"></stop><stop offset="100%" stop-color="#faf89b"></stop></linearGradient></defs><g><g fill="#ff98c8" transform="matrix(4.396946564885496,0,0,4.396946564885496,10.12696142528803,131.26166552987718)" stroke="#541236" stroke-width="0.2"><path d="M9.98 0L9.15-2.66L4.45-2.66L3.63 0L-0.03 0L5.19-14.22L8.41-14.22L13.66 0L9.98 0ZM6.80-10.23L5.27-5.30L8.33-5.30L6.80-10.23ZM23.60 0L22.77-2.66L18.08-2.66L17.26 0L13.59 0L18.81-14.22L22.03-14.22L27.29 0L23.60 0ZM20.42-10.23L18.90-5.30L21.95-5.30L20.42-10.23ZM37.23 0L36.40-2.66L31.70-2.66L30.88 0L27.22 0L32.43-14.22L35.65-14.22L40.91 0L37.23 0ZM34.04-10.23L32.52-5.30L35.58-5.30L34.04-10.23Z"></path></g></g></svg>